<svg id="Layer_1" data-name="Layer 1" xmlns="http://www.w3.org/2000/svg" viewBox="0 0 200 200"><defs><style>.cls-1{fill:#23408b;}.cls-2{fill:#e37426;}.cls-3{fill:#231f20;}.cls-4{fill:none;stroke:#231f20;stroke-miterlimit:10;}</style></defs><title>SADFM</title><path class="cls-1" d="M83.36,9.32S9.08,24.4,6.82,97.54C6.74,100,23.62,125.6,23.62,125.6a88.37,88.37,0,0,0,8.25,16.69c10.77,16.76,35.75,37.35,79.86,33.32,2.4-.22,20.32-19.22,20.32-19.22s18.81-8.33,28.61-33.59c1.53-3.95,32.8-22.8,32.8-22.8L161,76.8l9.51-37.15A98,98,0,0,0,157,27.25C144,17.32,121.41,5.49,83.36,9.32Z"/><path class="cls-2" d="M119.8,65.69l-11.7-18a70.09,70.09,0,0,0-32.85,4.83c-14.62,6.2-28.47,19.16-30.6,45.05-0.15,1.86-20.6,27.89-20.6,27.89s6.67,18,13.83,24.79c1.34,1.27,28,5.91,28,5.91l9.32,4.73,12.43,3.27,24.06,11.48-2-60.18s25.32,2.81,39.65.55c1.28-.2,3.68-10.26,3.2-18.44a64.1,64.1,0,0,0-3.42-16.47l20.44-40.44Z"/><circle class="cls-3" cx="100.32" cy="98.21" r="4.51"/><ellipse class="cls-4" cx="100.32" cy="100" rx="93.5" ry="91.42"/><ellipse class="cls-4" cx="98.57" cy="98.21" rx="80.23" ry="78.44"/><ellipse class="cls-4" cx="98.78" cy="99.59" rx="66.93" ry="65.44"/><ellipse class="cls-4" cx="98.57" cy="99.59" rx="53.96" ry="52.76"/><ellipse class="cls-4" cx="100.32" cy="100" rx="40.14" ry="39.24"/><ellipse class="cls-4" cx="100.32" cy="99.59" rx="27.28" ry="26.67"/><ellipse class="cls-4" cx="100.32" cy="98.21" rx="13.64" ry="13.34"/><line class="cls-4" x1="113.96" y1="9.55" x2="100.32" y2="98.21"/><line class="cls-4" x1="83.36" y1="9.32" x2="100.32" y2="98.21"/><line class="cls-4" x1="53.66" y1="20.78" x2="100.32" y2="98.21"/><line class="cls-4" x1="28.66" y1="41.28" x2="99.92" y2="97.54"/><line class="cls-4" x1="12.1" y1="67.38" x2="99.92" y2="97.54"/><line class="cls-4" x1="6.82" y1="97.54" x2="99.92" y2="97.54"/><line class="cls-4" x1="11.94" y1="129.89" x2="99.92" y2="97.54"/><line class="cls-4" x1="28.12" y1="158.09" x2="99.92" y2="97.54"/><line class="cls-4" x1="52.78" y1="178.74" x2="99.92" y2="97.54"/><line class="cls-4" x1="82.93" y1="189.83" x2="99.92" y2="97.54"/><line class="cls-4" x1="113.96" y1="190.45" x2="99.92" y2="97.54"/><line class="cls-4" x1="145.08" y1="180.29" x2="99.92" y2="97.54"/><line class="cls-4" x1="170.54" y1="160.36" x2="100.32" y2="98.28"/><line class="cls-4" x1="187.71" y1="132.57" x2="100.32" y2="98.28"/><line class="cls-4" x1="193.83" y1="100" x2="100.32" y2="100"/><line class="cls-4" x1="187.65" y1="67.29" x2="100.32" y2="98.28"/><line class="cls-4" x1="170.54" y1="39.65" x2="100.32" y2="98.28"/><line class="cls-4" x1="147.07" y1="20.85" x2="100.43" y2="97.54"/></svg>